<?xml version="1.0" encoding="UTF-8" standalone="no"?>
<!-- Created with Inkscape (http://www.inkscape.org/) -->

<svg
   xmlns:dc="http://purl.org/dc/elements/1.1/"
   xmlns:cc="http://creativecommons.org/ns#"
   xmlns:rdf="http://www.w3.org/1999/02/22-rdf-syntax-ns#"
   xmlns:svg="http://www.w3.org/2000/svg"
   xmlns="http://www.w3.org/2000/svg"
   xmlns:sodipodi="http://sodipodi.sourceforge.net/DTD/sodipodi-0.dtd"
   xmlns:inkscape="http://www.inkscape.org/namespaces/inkscape"
   id="svg2"
   version="1.1"
   inkscape:version="0.91 r13725"
   xml:space="preserve"
   width="911.63013"
   height="810"
   viewBox="0 0 911.63014 810"
   sodipodi:docname="publicdomainq-medicine-doctor-and-nurse.svg"
   inkscape:export-filename="/media/sdb1/_GRAFIKA/Publicdomainq/lidi/publicdomainq-medicine-doctor-and-nurse.png"
   inkscape:export-xdpi="88.930695"
   inkscape:export-ydpi="88.930695"><title
     id="title7784">Medicine doctor and nurse</title><metadata
     id="metadata8"><rdf:RDF><cc:Work
         rdf:about=""><dc:format>image/svg+xml</dc:format><dc:type
           rdf:resource="http://purl.org/dc/dcmitype/StillImage" /><dc:title>Medicine doctor and nurse</dc:title><cc:license
           rdf:resource="http://creativecommons.org/publicdomain/zero/1.0/" /><dc:subject><rdf:Bag><rdf:li>man</rdf:li><rdf:li>woman</rdf:li><rdf:li>male</rdf:li><rdf:li>female</rdf:li><rdf:li>work</rdf:li><rdf:li>hospital</rdf:li><rdf:li>ambulance</rdf:li><rdf:li>medicine</rdf:li><rdf:li>doctor</rdf:li><rdf:li>smile</rdf:li><rdf:li>health</rdf:li><rdf:li>cure</rdf:li><rdf:li>injury</rdf:li><rdf:li>publicdomainq.net</rdf:li></rdf:Bag></dc:subject><dc:description>This image was adapted from a picture posted to publicdomainq.net. All of the images on these sites are in the public domain i.e. CC0. This site is only in Japanese but can be easily navigated with Google Translate.</dc:description></cc:Work><cc:License
         rdf:about="http://creativecommons.org/publicdomain/zero/1.0/"><cc:permits
           rdf:resource="http://creativecommons.org/ns#Reproduction" /><cc:permits
           rdf:resource="http://creativecommons.org/ns#Distribution" /><cc:permits
           rdf:resource="http://creativecommons.org/ns#DerivativeWorks" /></cc:License></rdf:RDF></metadata><defs
     id="defs6" /><sodipodi:namedview
     pagecolor="#ffffff"
     bordercolor="#666666"
     borderopacity="1"
     objecttolerance="10"
     gridtolerance="10"
     guidetolerance="10"
     inkscape:pageopacity="0"
     inkscape:pageshadow="2"
     inkscape:window-width="1920"
     inkscape:window-height="1125"
     id="namedview4"
     showgrid="false"
     inkscape:zoom="0.74237518"
     inkscape:cx="631.70137"
     inkscape:cy="407.0145"
     inkscape:window-x="0"
     inkscape:window-y="0"
     inkscape:window-maximized="1"
     inkscape:current-layer="svg2"
     fit-margin-top="5"
     fit-margin-left="5"
     fit-margin-bottom="5"
     fit-margin-right="5" /><g
     id="g12"
     transform="matrix(0.49563517,0,0,-0.49563517,5.0003469,804.95072)"><path
       d="m 1078.61,139.18 c 0,0 -20,5 -19.65,5.84 1,58.742 3.96,123.761 11.27,171.57 14.45,94.582 28.94,106.801 62.48,126.871 60.39,36.129 201.27,87.5 201.27,87.5 0,0 26.25,37.5 57.5,47.5 l 87.5,3.75 c 35,-10 56.87,-49.371 56.87,-49.371 0,0 134.09,-51.531 194.5,-87.649 0,0 35.19,-11.839 57.79,-55.269 12.73,-24.461 18.26,-146.223 20.65,-247.391 0.64,1.649 -15.18,-4.179 -15.18,-4.179 L 1686.48,7 1122.77,7 1078.61,139.18"
       style="fill:#ffffff;fill-opacity:1;fill-rule:nonzero;stroke:none"
       id="path14"
       inkscape:connector-curvature="0" /><path
       d="m 1379.29,541.281 7.48,4.938 c 9.34,15 12.48,42.742 13.5,57.09 l 70.21,0.66 c 0.98,-14.141 4.07,-42.52 13.56,-57.75 l 8.69,-5.879 c 0,0 -27.93,-74.578 -60.84,-74.578 -32.91,0 -59.38,66.867 -52.6,75.519"
       style="fill:#fcd0b4;fill-opacity:1;fill-rule:nonzero;stroke:none"
       id="path16"
       inkscape:connector-curvature="0" /><path
       d="m 1396.64,587.148 79.12,0 0,-18.757 c 0,0 -24.16,-36.551 -85.94,-24.051 l 6.82,42.808"
       style="fill:#e59686;fill-opacity:1;fill-rule:nonzero;stroke:none"
       id="path18"
       inkscape:connector-curvature="0" /><path
       d="M 1174.44,151.691 C 1179.44,151.012 1197.77,7 1197.77,7 l 490,0 30,201.352 C 1600.27,96.6914 1305.27,79.1914 1174.44,151.691"
       style="fill:#dde6f6;fill-opacity:1;fill-rule:nonzero;stroke:none"
       id="path20"
       inkscape:connector-curvature="0" /><path
       d="m 1077.77,139.191 102.5,-33.75 11.25,-98.441 -105,0 -8.75,132.191"
       style="fill:#fcd0b4;fill-opacity:1;fill-rule:nonzero;stroke:none"
       id="path22"
       inkscape:connector-curvature="0" /><path
       d="m 1077.77,139.191 2.5,-26.671 106.66,-63.3286 -13.32,58.3286 -95.84,31.671"
       style="fill:#e59686;fill-opacity:1;fill-rule:nonzero;stroke:none"
       id="path24"
       inkscape:connector-curvature="0" /><path
       d="M 1795.27,139.191 1692.77,105.441 1681.52,7 l 105,0 8.75,132.191"
       style="fill:#fcd0b4;fill-opacity:1;fill-rule:nonzero;stroke:none"
       id="path26"
       inkscape:connector-curvature="0" /><path
       d="m 1795.27,139.191 -2.5,-26.671 -106.66,-63.3286 13.32,58.3286 95.84,31.671"
       style="fill:#e59686;fill-opacity:1;fill-rule:nonzero;stroke:none"
       id="path28"
       inkscape:connector-curvature="0" /><path
       d="M 301.832,618.707 C 236.09,595.102 141.328,547.961 110.98,542.531 -23.8984,518.352 7,13.9297 7,13.9297 l 164.363,-1.6797 780.438,0 c 0,361.641 -0.633,490.281 -114.797,539.691 -18.981,8.207 -113.113,44.161 -183.074,65.313 -41.367,46.902 -75.2,54.09 -75.2,54.09 0,0 -8.085,26.043 -92,27.785 -104.679,2.156 -105.847,-24.887 -105.847,-24.887 0,0 -54.121,-20.644 -79.051,-55.535"
       style="fill:#ffffff;fill-opacity:1;fill-rule:nonzero;stroke:none"
       id="path30"
       inkscape:connector-curvature="0" /><path
       d="m 948.414,265.34 c 0,0 -99.336,-113.399 -389.199,-156.25 C 261.086,65.0195 16.1016,186.691 16.1016,186.691 L 7.00781,12.25 l 944.79319,0 -3.387,253.09"
       style="fill:#dde6f6;fill-opacity:1;fill-rule:nonzero;stroke:none"
       id="path32"
       inkscape:connector-curvature="0" /><path
       d="m 545,650.863 c 0.105,19.465 -2.305,65.793 -2.305,65.793 l -134.922,0 c 0,0 -1.128,-48.906 -0.726,-62.363 0,0 16.641,-61.055 71.605,-61.055 54.946,0 66.348,57.625 66.348,57.625"
       style="fill:#fcd0b4;fill-opacity:1;fill-rule:nonzero;stroke:none"
       id="path34"
       inkscape:connector-curvature="0" /><path
       d="m 410.016,735.973 130.527,0 1.414,-65.965 c 0,0 -70.066,-58.688 -135.629,-23.559 l 2.473,38.77 1.215,50.754"
       style="fill:#de9284;fill-opacity:1;fill-rule:nonzero;stroke:none"
       id="path36"
       inkscape:connector-curvature="0" /><path
       d="m 394.957,463.27 51.406,78.378 62.989,4.641 47.496,-71.437 c 0,0 -104.067,38.527 -161.891,-11.582"
       style="fill:#a7a5a6;fill-opacity:1;fill-rule:nonzero;stroke:none"
       id="path38"
       inkscape:connector-curvature="0" /><path
       d="m 476.703,140.691 -46.027,159.508 31.531,191.641 -14.98,54.449 29.113,40.781 7.719,0 25.293,-40.781 L 489.82,491.84 520.406,297.898 476.703,140.691"
       style="fill:#3f59b1;fill-opacity:1;fill-rule:nonzero;stroke:none"
       id="path40"
       inkscape:connector-curvature="0" /><path
       d="m 544.535,681.488 c 0,0 0.938,-9.16 3.453,-26.746 0,0 -22.25,-48.543 -69.879,-62.664 -47.589,14.121 -71.687,62.223 -71.687,62.223 1.254,20.547 1.801,28.086 1.801,28.086"
       style="fill:none;stroke:#231f20;stroke-width:14;stroke-linecap:round;stroke-linejoin:round;stroke-miterlimit:10;stroke-dasharray:none;stroke-opacity:1"
       id="path42"
       inkscape:connector-curvature="0" /><path
       d="M 520.266,292.488 489.82,491.84 509.352,546.289"
       style="fill:none;stroke:#231f20;stroke-width:12;stroke-linecap:round;stroke-linejoin:round;stroke-miterlimit:10;stroke-dasharray:none;stroke-opacity:1"
       id="path44"
       inkscape:connector-curvature="0" /><path
       d="M 447.227,546.289 462.207,491.84 433.496,287.082"
       style="fill:none;stroke:#231f20;stroke-width:12;stroke-linecap:round;stroke-linejoin:round;stroke-miterlimit:10;stroke-dasharray:none;stroke-opacity:1"
       id="path46"
       inkscape:connector-curvature="0" /><path
       d="m 478.285,592.078 -85.297,-127.09 c 0,0 -24.425,33.242 -32.207,115.211 -1.965,20.492 -0.101,50.512 9.754,77.121 5.57,15.137 15.031,23.914 23.188,28.993"
       style="fill:none;stroke:#231f20;stroke-width:12;stroke-linecap:round;stroke-linejoin:round;stroke-miterlimit:10;stroke-dasharray:none;stroke-opacity:1"
       id="path48"
       inkscape:connector-curvature="0" /><path
       d="m 478.285,592.078 85.278,-127.09 c 0,0 24.417,33.242 32.242,115.211 1.949,20.492 0.093,50.512 -9.754,77.121 -6.207,16.731 -17.074,25.703 -25.731,30.442"
       style="fill:none;stroke:#231f20;stroke-width:12;stroke-linecap:round;stroke-linejoin:round;stroke-miterlimit:10;stroke-dasharray:none;stroke-opacity:1"
       id="path50"
       inkscape:connector-curvature="0" /><path
       d="M 656.973,618.949 C 727.996,596.051 802.75,572.5 862.703,539.109 943.59,494.051 951.801,375.578 951.801,13.9297"
       style="fill:none;stroke:#231f20;stroke-width:14;stroke-linecap:round;stroke-linejoin:round;stroke-miterlimit:10;stroke-dasharray:none;stroke-opacity:1"
       id="path52"
       inkscape:connector-curvature="0" /><path
       d="M 301.832,618.949 C 230.805,596.051 156.055,572.5 96.0977,539.109 15.2109,494.051 7,375.578 7,13.9297"
       style="fill:none;stroke:#231f20;stroke-width:14;stroke-linecap:round;stroke-linejoin:round;stroke-miterlimit:10;stroke-dasharray:none;stroke-opacity:1"
       id="path54"
       inkscape:connector-curvature="0" /><path
       d="M 108.879,376.762 171.648,13.5117"
       style="fill:none;stroke:#231f20;stroke-width:14;stroke-linecap:round;stroke-linejoin:round;stroke-miterlimit:10;stroke-dasharray:none;stroke-opacity:1"
       id="path56"
       inkscape:connector-curvature="0" /><path
       d="M 848.406,376.762 785.648,13.5117"
       style="fill:none;stroke:#231f20;stroke-width:14;stroke-linecap:round;stroke-linejoin:round;stroke-miterlimit:10;stroke-dasharray:none;stroke-opacity:1"
       id="path58"
       inkscape:connector-curvature="0" /><path
       d="m 462.207,491.84 c 0,0 15.32,6.832 27.266,0.75"
       style="fill:none;stroke:#231f20;stroke-width:12;stroke-linecap:round;stroke-linejoin:round;stroke-miterlimit:10;stroke-dasharray:none;stroke-opacity:1"
       id="path60"
       inkscape:connector-curvature="0" /><path
       d="M 367.133,532.672 473.805,133.898"
       style="fill:none;stroke:#231f20;stroke-width:12;stroke-linecap:round;stroke-linejoin:round;stroke-miterlimit:10;stroke-dasharray:none;stroke-opacity:1"
       id="path62"
       inkscape:connector-curvature="0" /><path
       d="M 589.137,532.672 442.945,22.5313"
       style="fill:none;stroke:#231f20;stroke-width:12;stroke-linecap:round;stroke-linejoin:round;stroke-miterlimit:10;stroke-dasharray:none;stroke-opacity:1"
       id="path64"
       inkscape:connector-curvature="0" /><path
       d="m 376.949,671.227 c 0,0 -65.863,-15.461 -112.629,-110.297 L 305.449,540.379 230.934,467.121 454.938,80.75"
       style="fill:none;stroke:#231f20;stroke-width:12;stroke-linecap:round;stroke-linejoin:round;stroke-miterlimit:10;stroke-dasharray:none;stroke-opacity:1"
       id="path66"
       inkscape:connector-curvature="0" /><path
       d="m 580.859,671.227 c 0,0 65.875,-15.461 112.657,-110.297 L 652.383,540.379 726.941,467.121 463.508,14.7891"
       style="fill:none;stroke:#231f20;stroke-width:12;stroke-linecap:round;stroke-linejoin:round;stroke-miterlimit:10;stroke-dasharray:none;stroke-opacity:1"
       id="path68"
       inkscape:connector-curvature="0" /><path
       d="m 792.836,1006.5 -636.219,0 -6.789,113.25 c 0,0 -29.711,66.79 -29.562,169.25 0.101,58.6 19.863,106.97 73.031,161.02 67.664,68.79 215.629,148.45 340.281,156.5 104.473,6.77 148.438,-60.8 127.024,-103.59 0,0 50.113,9.02 102.336,-37.15 38.996,-34.48 64.082,-118.18 64.167,-176.78 0.157,-102.46 -29.562,-169.25 -29.562,-169.25 l -4.707,-113.25"
       style="fill:#3c2221;fill-opacity:1;fill-rule:nonzero;stroke:none"
       id="path70"
       inkscape:connector-curvature="0" /><path
       d="m 814.418,1361.57 c -33.543,62.35 -80.938,102.43 -138.363,119.97 -17.571,5.36 -6.219,21.03 -6.219,21.03 l 13.246,0.38 c 19.508,-2.07 49.285,-10.13 79.856,-37.17 14.894,-13.16 27.714,-33.51 37.929,-56.86 l 13.551,-47.35"
       style="fill:#87575c;fill-opacity:1;fill-rule:nonzero;stroke:none"
       id="path72"
       inkscape:connector-curvature="0" /><path
       d="m 168.277,1085.69 c 0,0 -29.714,66.77 -29.562,169.25 0.098,58.6 19.863,106.97 73.027,161.02 67.676,68.78 212.809,150.65 337.008,164.14 58.121,6.31 89.258,-9.47 115.867,-42.99 -7.625,37.08 -51.965,74.53 -131.039,69.41 -124.652,-8.05 -272.617,-87.71 -340.281,-156.5 -53.168,-54.05 -72.93,-102.42 -73.031,-161.02 -0.149,-102.46 29.562,-169.25 29.562,-169.25 l 6.789,-113.25 16.403,0 -4.743,79.19"
       style="fill:#87575c;fill-opacity:1;fill-rule:nonzero;stroke:none"
       id="path74"
       inkscape:connector-curvature="0" /><path
       d="m 759.105,1096.42 c 0,0 10.524,29.81 37.223,22.74 33.203,-8.83 56.371,-58.41 24.731,-133.336 -29.157,-69.035 -61.258,-80.969 -81.039,-70.847"
       style="fill:#fcd0b4;fill-opacity:1;fill-rule:nonzero;stroke:none"
       id="path76"
       inkscape:connector-curvature="0" /><path
       d="m 758.102,1035.68 c -8.168,-28.56 -21.082,-65.43 -5.11,-72.262 15.988,-6.82 38.461,17.238 46.633,45.782 8.953,31.22 11.668,53.72 -4.312,60.54 -15.989,6.83 -31.149,-12.78 -37.211,-34.06"
       style="fill:#de9284;fill-opacity:1;fill-rule:nonzero;stroke:none"
       id="path78"
       inkscape:connector-curvature="0" /><path
       d="m 181.863,1096.42 c 0,0 -10.523,29.81 -37.222,22.74 -33.211,-8.83 -56.3558,-58.41 -24.723,-133.336 29.152,-69.035 61.258,-80.969 81.039,-70.847"
       style="fill:#fcd0b4;fill-opacity:1;fill-rule:nonzero;stroke:none"
       id="path80"
       inkscape:connector-curvature="0" /><path
       d="m 182.871,1035.68 c 8.18,-28.56 21.07,-65.43 5.109,-72.262 -15.988,-6.82 -38.468,17.238 -46.636,45.782 -8.949,31.22 -11.656,53.72 4.304,60.54 15.989,6.83 31.165,-12.78 37.223,-34.06"
       style="fill:#de9284;fill-opacity:1;fill-rule:nonzero;stroke:none"
       id="path82"
       inkscape:connector-curvature="0" /><path
       d="m 739.711,1252.19 c 0,0 26.738,-154.6 13.117,-264.85 C 741.391,894.664 709.441,801.363 656.684,757.445 607.035,716.137 537.75,674.398 470.492,674.398 c -67.957,0 -134.637,41.739 -184.285,83.047 -52.769,43.918 -86.621,137.219 -98.066,229.895 -13.621,110.25 13.125,264.85 13.125,264.85 0,0 76.437,146.03 227.679,182.06 0,0 -103.183,-60.8 -141.871,-138.51 0,0 180.559,131.76 330.629,138.51 0,0 83.078,-41.67 122.008,-182.06"
       style="fill:#fcd0b4;fill-opacity:1;fill-rule:nonzero;stroke:none"
       id="path84"
       inkscape:connector-curvature="0" /><path
       d="m 276.645,1081.56 c 0,-36.72 27.3,-66.49 60.953,-66.49 33.679,0 60.961,29.77 60.961,66.49 0,36.72 -11.707,77.89 -60.954,77.89 -49.246,0 -60.96,-41.17 -60.96,-77.89"
       style="fill:#ffffff;fill-opacity:1;fill-rule:nonzero;stroke:none"
       id="path86"
       inkscape:connector-curvature="0" /><path
       d="m 664.027,1081.56 c 0,-36.72 -27.297,-66.49 -60.953,-66.49 -33.672,0 -60.961,29.77 -60.961,66.49 0,36.72 11.715,77.89 60.961,77.89 49.239,0 60.953,-41.17 60.953,-77.89"
       style="fill:#ffffff;fill-opacity:1;fill-rule:nonzero;stroke:none"
       id="path88"
       inkscape:connector-curvature="0" /><path
       d="m 386.738,1128.2 c -6.312,8.41 -23.144,37.87 -57.867,30.5 -34.73,-7.36 -46.293,-29.45 -49.453,-45.24 0,0 36.832,48.4 107.32,14.74"
       style="fill:#d8e2f5;fill-opacity:1;fill-rule:nonzero;stroke:none"
       id="path90"
       inkscape:connector-curvature="0" /><path
       d="m 554.055,1128.2 c 6.316,8.41 23.164,37.87 57.886,30.5 34.719,-7.36 46.297,-29.45 49.461,-45.24 0,0 -36.832,48.4 -107.347,14.74"
       style="fill:#d8e2f5;fill-opacity:1;fill-rule:nonzero;stroke:none"
       id="path92"
       inkscape:connector-curvature="0" /><path
       d="m 385.906,1083.85 c 0,-28.03 -15.105,-50.79 -33.742,-50.79 -18.652,0 -33.766,22.76 -33.766,50.79 0,28.06 15.114,50.81 33.766,50.81 18.637,0 33.742,-22.75 33.742,-50.81"
       style="fill:#231f20;fill-opacity:1;fill-rule:nonzero;stroke:none"
       id="path94"
       inkscape:connector-curvature="0" /><path
       d="m 318.277,991.348 c 0,-11.528 -25.601,-20.875 -57.172,-20.875 -31.593,0 -57.214,9.347 -57.214,20.875 0,11.532 25.621,20.862 57.214,20.862 31.571,0 57.172,-9.33 57.172,-20.862"
       style="fill:#f7939c;fill-opacity:1;fill-rule:nonzero;stroke:none"
       id="path96"
       inkscape:connector-curvature="0" /><path
       d="m 737.055,991.348 c 0,-11.528 -25.602,-20.875 -57.192,-20.875 -31.57,0 -57.172,9.347 -57.172,20.875 0,11.532 25.602,20.862 57.172,20.862 31.59,0 57.192,-9.33 57.192,-20.862"
       style="fill:#f7939c;fill-opacity:1;fill-rule:nonzero;stroke:none"
       id="path98"
       inkscape:connector-curvature="0" /><path
       d="m 382.434,1107.6 c 0,-6.09 -3.602,-11.01 -8.036,-11.01 -4.437,0 -8.035,4.92 -8.035,11.01 0,6.1 3.598,11.04 8.035,11.04 4.434,0 8.036,-4.94 8.036,-11.04"
       style="fill:#ffffff;fill-opacity:1;fill-rule:nonzero;stroke:none"
       id="path100"
       inkscape:connector-curvature="0" /><path
       d="m 624.121,1083.85 c 0,-28.03 -15.105,-50.79 -33.746,-50.79 -18.652,0 -33.766,22.76 -33.766,50.79 0,28.06 15.114,50.81 33.766,50.81 18.641,0 33.746,-22.75 33.746,-50.81"
       style="fill:#231f20;fill-opacity:1;fill-rule:nonzero;stroke:none"
       id="path102"
       inkscape:connector-curvature="0" /><path
       d="m 620.645,1107.6 c 0,-6.09 -3.598,-11.01 -8.032,-11.01 -4.437,0 -8.039,4.92 -8.039,11.01 0,6.1 3.602,11.04 8.039,11.04 4.434,0 8.032,-4.94 8.032,-11.04"
       style="fill:#ffffff;fill-opacity:1;fill-rule:nonzero;stroke:none"
       id="path104"
       inkscape:connector-curvature="0" /><path
       d="m 414.02,1208.4 c -2.379,-3.46 -21.836,6.94 -44.563,13.15 -11.316,3.13 -23.336,4.93 -33.523,4.57 -10.231,-0.26 -18.516,-2.47 -23.692,-4.21 -20.703,-6.37 -36.5,-18.79 -43.301,-14.63 -3.418,2.09 -3.238,9.45 2.211,18.33 5.297,8.79 16.567,19.06 32.067,24.04 7.597,2.58 20.211,4.74 33.906,3.32 13.715,-1.27 28.02,-6.03 39.949,-12.25 24.012,-12.56 39.196,-29.3 36.946,-32.32"
       style="fill:#231f20;fill-opacity:1;fill-rule:nonzero;stroke:none"
       id="path106"
       inkscape:connector-curvature="0" /><path
       d="m 530.27,1208.4 c -2.25,3.02 12.933,19.76 36.941,32.31 11.93,6.22 26.23,10.99 39.945,12.26 13.699,1.42 26.305,-0.74 33.907,-3.32 15.5,-4.97 26.769,-15.25 32.066,-24.04 5.445,-8.88 5.625,-16.24 2.207,-18.33 -6.801,-4.16 -22.598,8.26 -43.293,14.64 -5.18,1.73 -13.465,3.94 -23.688,4.2 -10.195,0.36 -22.207,-1.44 -33.527,-4.57 -22.723,-6.22 -42.176,-16.61 -44.558,-13.15"
       style="fill:#231f20;fill-opacity:1;fill-rule:nonzero;stroke:none"
       id="path108"
       inkscape:connector-curvature="0" /><path
       d="m 394.813,1113.45 c 0,0 -17.262,55.17 -73.676,45.04 -45.594,-8.19 -46.055,-66.43 -46.055,-66.43"
       style="fill:none;stroke:#231f20;stroke-width:14;stroke-linecap:round;stroke-linejoin:round;stroke-miterlimit:10;stroke-dasharray:none;stroke-opacity:1"
       id="path110"
       inkscape:connector-curvature="0" /><path
       d="m 739.711,1252.19 c 0,0 26.738,-154.6 13.117,-264.85 -11.437,-92.676 -41.305,-179.406 -96.144,-229.895 -47.563,-43.769 -123.145,-83.047 -186.192,-83.047 -60.586,0 -136.929,39.043 -184.285,83.047 -51.273,47.629 -86.621,137.219 -98.066,229.895 -13.621,110.25 13.125,264.85 13.125,264.85 0,0 76.437,146.03 227.679,182.06 0,0 -103.183,-60.8 -141.871,-138.51 0,0 180.559,131.76 330.629,138.51 0,0 83.078,-41.67 122.008,-182.06 z"
       style="fill:none;stroke:#231f20;stroke-width:14;stroke-linecap:round;stroke-linejoin:round;stroke-miterlimit:10;stroke-dasharray:none;stroke-opacity:1"
       id="path112"
       inkscape:connector-curvature="0" /><path
       d="m 545.863,1113.45 c 0,0 17.274,55.17 73.7,45.04 45.578,-8.19 46.042,-66.43 46.042,-66.43"
       style="fill:none;stroke:#231f20;stroke-width:14;stroke-linecap:round;stroke-linejoin:round;stroke-miterlimit:10;stroke-dasharray:none;stroke-opacity:1"
       id="path114"
       inkscape:connector-curvature="0" /><path
       d="m 757.602,1096.42 c 0,0 12.027,29.81 38.726,22.74 33.203,-8.83 56.371,-58.41 24.731,-133.336 -27.11,-64.191 -56.774,-79.015 -76.711,-72.636"
       style="fill:none;stroke:#231f20;stroke-width:14;stroke-linecap:round;stroke-linejoin:round;stroke-miterlimit:10;stroke-dasharray:none;stroke-opacity:1"
       id="path116"
       inkscape:connector-curvature="0" /><path
       d="m 803.418,1079.14 c 0,0 -33.789,5.43 -47.543,-58.43"
       style="fill:none;stroke:#231f20;stroke-width:14;stroke-linecap:round;stroke-linejoin:round;stroke-miterlimit:10;stroke-dasharray:none;stroke-opacity:1"
       id="path118"
       inkscape:connector-curvature="0" /><path
       d="m 183.355,1096.42 c 0,0 -12.015,29.81 -38.714,22.74 -33.211,-8.83 -56.3558,-58.41 -24.723,-133.336 27.102,-64.191 56.758,-79.015 76.703,-72.636"
       style="fill:none;stroke:#231f20;stroke-width:14;stroke-linecap:round;stroke-linejoin:round;stroke-miterlimit:10;stroke-dasharray:none;stroke-opacity:1"
       id="path120"
       inkscape:connector-curvature="0" /><path
       d="m 137.559,1079.14 c 0,0 33.781,5.43 47.543,-58.43"
       style="fill:none;stroke:#231f20;stroke-width:14;stroke-linecap:round;stroke-linejoin:round;stroke-miterlimit:10;stroke-dasharray:none;stroke-opacity:1"
       id="path122"
       inkscape:connector-curvature="0" /><path
       d="m 797.543,1119.75 c 0,0 29.719,66.79 29.562,169.25 -0.085,58.6 -25.171,142.3 -64.167,176.78 -52.223,46.17 -102.336,37.15 -102.336,37.15 21.414,42.79 -22.551,110.36 -127.024,103.59 -124.652,-8.05 -272.617,-87.71 -340.281,-156.5 -53.168,-54.05 -72.93,-102.42 -73.031,-161.02 -0.149,-102.46 28.5,-167.61 28.5,-167.61"
       style="fill:none;stroke:#231f20;stroke-width:14;stroke-linecap:round;stroke-linejoin:round;stroke-miterlimit:10;stroke-dasharray:none;stroke-opacity:1"
       id="path124"
       inkscape:connector-curvature="0" /><path
       d="m 437.969,1033.68 c 0,-13.15 -10.746,-23.9 -23.906,-23.9 l -159.766,0 c -13.141,0 -24.805,10.71 -25.895,23.81 l -8.937,89.7 c -1.102,13.1 8.762,23.82 21.906,23.82 l 179.863,0 c 13.161,0 23.903,-10.76 23.903,-23.9 l -7.168,-89.53 z"
       style="fill:none;stroke:#231f20;stroke-width:14;stroke-linecap:butt;stroke-linejoin:miter;stroke-miterlimit:10;stroke-dasharray:none;stroke-opacity:1"
       id="path126"
       inkscape:connector-curvature="0" /><path
       d="m 704.469,1033.61 c -1.031,-13.12 -12.629,-23.83 -25.77,-23.83 l -162.429,0 c -13.149,0 -23.903,10.75 -23.903,23.9 l -5.324,89.53 c 0,13.14 10.754,23.9 23.902,23.9 l 179.868,0 c 13.136,0 23.054,-10.72 22.031,-23.83 l -8.375,-89.67 z"
       style="fill:none;stroke:#231f20;stroke-width:14;stroke-linecap:butt;stroke-linejoin:miter;stroke-miterlimit:10;stroke-dasharray:none;stroke-opacity:1"
       id="path128"
       inkscape:connector-curvature="0" /><path
       d="m 448.563,1089.63 37.781,0"
       style="fill:none;stroke:#231f20;stroke-width:14;stroke-linecap:butt;stroke-linejoin:miter;stroke-miterlimit:10;stroke-dasharray:none;stroke-opacity:1"
       id="path130"
       inkscape:connector-curvature="0" /><path
       d="m 710.344,1103.77 47.215,0"
       style="fill:none;stroke:#231f20;stroke-width:14;stroke-linecap:butt;stroke-linejoin:miter;stroke-miterlimit:10;stroke-dasharray:none;stroke-opacity:1"
       id="path132"
       inkscape:connector-curvature="0" /><path
       d="m 181.477,1103.77 42.07,0"
       style="fill:none;stroke:#231f20;stroke-width:14;stroke-linecap:butt;stroke-linejoin:miter;stroke-miterlimit:10;stroke-dasharray:none;stroke-opacity:1"
       id="path134"
       inkscape:connector-curvature="0" /><path
       d="m 498.906,940.57 c 0,-6.132 -12.933,-11.097 -28.883,-11.097 -15.96,0 -28.894,4.965 -28.894,11.097 0,6.114 12.934,11.071 28.894,11.071 15.95,0 28.883,-4.957 28.883,-11.071"
       style="fill:#c57e7b;fill-opacity:1;fill-rule:nonzero;stroke:none"
       id="path136"
       inkscape:connector-curvature="0" /><path
       d="m 1391.48,578.461 c -31.25,-10 -57.5,-47.5 -57.5,-47.5 0,0 -140.88,-51.371 -201.27,-87.5 -33.54,-20.07 -48.03,-32.289 -62.48,-126.871 -7.27,-47.449 -10.23,-111.879 -11.25,-170.281 l 117.54,-40.868"
       style="fill:none;stroke:#231f20;stroke-width:14;stroke-linecap:round;stroke-linejoin:round;stroke-miterlimit:10;stroke-dasharray:none;stroke-opacity:1"
       id="path138"
       inkscape:connector-curvature="0" /><path
       d="M 1149.8,313.262 1193.98,7"
       style="fill:none;stroke:#231f20;stroke-width:12;stroke-linecap:round;stroke-linejoin:round;stroke-miterlimit:10;stroke-dasharray:none;stroke-opacity:1"
       id="path140"
       inkscape:connector-curvature="0" /><path
       d="M 1724.82,298.262 1676.48,7"
       style="fill:none;stroke:#231f20;stroke-width:12;stroke-linecap:round;stroke-linejoin:round;stroke-miterlimit:10;stroke-dasharray:none;stroke-opacity:1"
       id="path142"
       inkscape:connector-curvature="0" /><path
       d="m 1556.48,197.84 133.75,0 0,101.25 -133.75,0 0,-101.25 z"
       style="fill:#ffffff;fill-opacity:1;fill-rule:nonzero;stroke:none"
       id="path144"
       inkscape:connector-curvature="0" /><path
       d="m 1556.48,197.84 133.75,0 0,101.25 -133.75,0 0,-101.25 z"
       style="fill:none;stroke:#231f20;stroke-width:12;stroke-linecap:round;stroke-linejoin:round;stroke-miterlimit:10;stroke-dasharray:none;stroke-opacity:1"
       id="path146"
       inkscape:connector-curvature="0" /><path
       d="m 1573.98,265.34 97.5,0 0,16.25 -97.5,0 0,-16.25 z"
       style="fill:#bdbcbc;fill-opacity:1;fill-rule:nonzero;stroke:none"
       id="path148"
       inkscape:connector-curvature="0" /><path
       d="m 644.047,265.109 133.75,0 0,101.25 -133.75,0 0,-101.25 z"
       style="fill:#ffffff;fill-opacity:1;fill-rule:nonzero;stroke:none"
       id="path150"
       inkscape:connector-curvature="0" /><path
       d="m 644.047,265.109 133.75,0 0,101.25 -133.75,0 0,-101.25 z"
       style="fill:none;stroke:#231f20;stroke-width:12;stroke-linecap:round;stroke-linejoin:round;stroke-miterlimit:10;stroke-dasharray:none;stroke-opacity:1"
       id="path152"
       inkscape:connector-curvature="0" /><path
       d="m 661.547,332.609 97.5,0 0,16.25 -97.5,0 0,-16.25 z"
       style="fill:#bdbcbc;fill-opacity:1;fill-rule:nonzero;stroke:none"
       id="path154"
       inkscape:connector-curvature="0" /><path
       d="m 1453.55,357.781 c 0,-9.871 -8.01,-17.883 -17.89,-17.883 -9.86,0 -17.87,8.012 -17.87,17.883 0,9.86 8.01,17.867 17.87,17.867 9.88,0 17.89,-8.007 17.89,-17.867 z"
       style="fill:none;stroke:#231f20;stroke-width:10;stroke-linecap:butt;stroke-linejoin:miter;stroke-miterlimit:10;stroke-dasharray:none;stroke-opacity:1"
       id="path156"
       inkscape:connector-curvature="0" /><path
       d="M 1077.77,140.02 1087.77,7"
       style="fill:none;stroke:#231f20;stroke-width:14;stroke-linecap:round;stroke-linejoin:round;stroke-miterlimit:10;stroke-dasharray:none;stroke-opacity:1"
       id="path158"
       inkscape:connector-curvature="0" /><path
       d="m 1479.64,578.461 c 31.25,-10 57.5,-47.5 57.5,-47.5 0,0 140.87,-51.371 201.26,-87.5 33.54,-20.07 48.03,-32.289 62.49,-126.871 7.26,-47.449 10.24,-111.879 11.25,-170.281 L 1694.6,105.441"
       style="fill:none;stroke:#231f20;stroke-width:14;stroke-linecap:round;stroke-linejoin:round;stroke-miterlimit:10;stroke-dasharray:none;stroke-opacity:1"
       id="path160"
       inkscape:connector-curvature="0" /><path
       d="M 1793.35,140.02 1783.35,7"
       style="fill:none;stroke:#231f20;stroke-width:14;stroke-linecap:round;stroke-linejoin:round;stroke-miterlimit:10;stroke-dasharray:none;stroke-opacity:1"
       id="path162"
       inkscape:connector-curvature="0" /><path
       d="m 1473.28,603.309 c 1.09,-14.348 4.47,-42.09 14.57,-57.09 0,0 5.42,-59.528 -52.46,-80.457 -57.88,20.929 -52.45,80.457 -52.45,80.457 10.08,15 13.46,42.742 14.57,57.09"
       style="fill:none;stroke:#231f20;stroke-width:14;stroke-linecap:round;stroke-linejoin:round;stroke-miterlimit:10;stroke-dasharray:none;stroke-opacity:1"
       id="path164"
       inkscape:connector-curvature="0" /><path
       d="m 347.973,875.121 c 0,0 42.324,-72.019 119.484,-72.019 77.227,0 119.492,72.019 119.492,72.019"
       style="fill:none;stroke:#231f20;stroke-width:14;stroke-linecap:round;stroke-linejoin:round;stroke-miterlimit:10;stroke-dasharray:none;stroke-opacity:1"
       id="path166"
       inkscape:connector-curvature="0" /><path
       d="m 1333.98,530.961 c 0,0 -34.45,-85.859 -12.46,-126.77 26.87,-50 97.5,3.75 113.87,61.571"
       style="fill:none;stroke:#231f20;stroke-width:14;stroke-linecap:round;stroke-linejoin:round;stroke-miterlimit:10;stroke-dasharray:none;stroke-opacity:1"
       id="path168"
       inkscape:connector-curvature="0" /><path
       d="m 1536.81,530.961 c 0,0 34.44,-85.859 12.45,-126.77 -26.87,-50 -97.5,3.75 -113.87,61.571"
       style="fill:none;stroke:#231f20;stroke-width:14;stroke-linecap:round;stroke-linejoin:round;stroke-miterlimit:10;stroke-dasharray:none;stroke-opacity:1"
       id="path170"
       inkscape:connector-curvature="0" /><path
       d="m 1506.77,600.379 c 256.76,47.383 284.01,348.684 284.01,348.684 42.75,227.417 -127.76,477.437 -224.73,464.777 -26.84,45.79 -127.71,66.82 -226.1,30.94 -98.39,-35.88 -316.87,-195.28 -260.39,-495.717 0,0 37.17,-331.926 284.01,-348.684"
       style="fill:#7b413b;fill-opacity:1;fill-rule:nonzero;stroke:none"
       id="path172"
       inkscape:connector-curvature="0" /><path
       d="m 1358.5,1398.22 c 94.99,35.88 192.37,14.85 218.28,-30.93 24.76,15.24 133.86,-43.8 184.88,-170.57 -41.65,158.3 -172.5,233.39 -200.1,216.42 -25.9,45.79 -123.28,66.83 -218.28,30.94 -94.98,-35.88 -322.04,-174.06 -267.53,-474.51 l 7.9,-17.152 c -23.73,284.212 184.1,411.532 274.85,445.802"
       style="fill:#d49c8d;fill-opacity:1;fill-rule:nonzero;stroke:none"
       id="path174"
       inkscape:connector-curvature="0" /><path
       d="m 1242.5,1362.27 c 0,0 80.8,-77.19 215.8,-77.64 0,0 38.34,-10.63 -30.79,-14.86 -69.14,-4.29 -189.39,6.87 -233.21,35.08 l 48.2,57.42"
       style="fill:#d49c8d;fill-opacity:1;fill-rule:nonzero;stroke:none"
       id="path176"
       inkscape:connector-curvature="0" /><path
       d="m 1151.67,934.906 c 6.94,-84.129 33.5,-176.922 71.95,-229.578 57.59,-78.848 165.3,-123.258 211.77,-123.258 46.46,0 154.19,44.41 211.76,123.258 36.7,50.274 62.19,137.742 70.29,214.188 -75.82,110.274 -157.25,288.934 -150.9,349.774 0,0 -55.55,-188.63 -216.45,-217.42 0,0 107.37,72.87 109.81,163.52 0,0 -74.34,-151.9 -230.73,-170.27 0,0 81.25,93.1 75.14,153.12 0,0 -110.23,-69.82 -152.64,-263.334"
       style="fill:#fcd0b4;fill-opacity:1;fill-rule:nonzero;stroke:none"
       id="path178"
       inkscape:connector-curvature="0" /><path
       d="m 1379.68,952.418 c 0,-38.645 -28.88,-70 -64.51,-70 -35.65,0 -64.53,31.355 -64.53,70 0,38.68 28.88,70.002 64.53,70.002 35.63,0 64.51,-31.322 64.51,-70.002"
       style="fill:#ffffff;fill-opacity:1;fill-rule:nonzero;stroke:none"
       id="path180"
       inkscape:connector-curvature="0" /><path
       d="m 1250.05,963.887 c 0,0 6.8,44.333 52.94,56.633 54.02,14.4 67.86,-34.473 67.86,-34.473 0,0 -28.12,18.743 -61.62,11.082 -31.59,-7.227 -59.18,-33.242 -59.18,-33.242"
       style="fill:#deedfa;fill-opacity:1;fill-rule:nonzero;stroke:none"
       id="path182"
       inkscape:connector-curvature="0" /><path
       d="m 1491.11,952.418 c 0,-38.645 28.89,-70 64.51,-70 35.64,0 64.51,31.355 64.51,70 0,38.68 -28.87,70.002 -64.51,70.002 -35.62,0 -64.51,-31.322 -64.51,-70.002"
       style="fill:#ffffff;fill-opacity:1;fill-rule:nonzero;stroke:none"
       id="path184"
       inkscape:connector-curvature="0" /><path
       d="m 1620.73,963.887 c 0,0 -6.79,44.333 -52.94,56.633 -54.03,14.4 -67.85,-34.473 -67.85,-34.473 0,0 28.11,18.743 61.62,11.082 31.58,-7.227 59.17,-33.242 59.17,-33.242"
       style="fill:#deedfa;fill-opacity:1;fill-rule:nonzero;stroke:none"
       id="path186"
       inkscape:connector-curvature="0" /><path
       d="m 1193.53,851.695 c 0,-12.566 20.08,-22.746 44.83,-22.746 24.76,0 44.85,10.18 44.85,22.746 0,12.547 -20.09,22.727 -44.85,22.727 -24.75,0 -44.83,-10.18 -44.83,-22.727"
       style="fill:#f7939c;fill-opacity:1;fill-rule:nonzero;stroke:none"
       id="path188"
       inkscape:connector-curvature="0" /><path
       d="m 1591.19,851.695 c 0,-12.566 20.07,-22.746 44.83,-22.746 24.76,0 44.84,10.18 44.84,22.746 0,12.547 -20.08,22.727 -44.84,22.727 -24.76,0 -44.83,-10.18 -44.83,-22.727"
       style="fill:#f7939c;fill-opacity:1;fill-rule:nonzero;stroke:none"
       id="path190"
       inkscape:connector-curvature="0" /><path
       d="m 1435.23,825.348 0,14.57"
       style="fill:none;stroke:#231f20;stroke-width:14;stroke-linecap:round;stroke-linejoin:round;stroke-miterlimit:10;stroke-dasharray:none;stroke-opacity:1"
       id="path192"
       inkscape:connector-curvature="0" /><path
       d="m 1502.77,1074.92 c 0,0 63.77,46.56 103.9,-9.6"
       style="fill:none;stroke:#231f20;stroke-width:12;stroke-linecap:round;stroke-linejoin:round;stroke-miterlimit:10;stroke-dasharray:none;stroke-opacity:1"
       id="path194"
       inkscape:connector-curvature="0" /><path
       d="m 1373.33,982.063 c 0,0 -16.97,57.117 -69.96,43.697 -57.93,-14.71 -53.16,-93.783 -53.16,-93.783"
       style="fill:none;stroke:#231f20;stroke-width:14;stroke-linecap:round;stroke-linejoin:round;stroke-miterlimit:10;stroke-dasharray:none;stroke-opacity:1"
       id="path196"
       inkscape:connector-curvature="0" /><path
       d="m 1248.07,952.973 -18.9,4.453"
       style="fill:none;stroke:#231f20;stroke-width:12;stroke-linecap:round;stroke-linejoin:round;stroke-miterlimit:10;stroke-dasharray:none;stroke-opacity:1"
       id="path198"
       inkscape:connector-curvature="0" /><path
       d="m 1497.46,982.063 c 0,0 16.97,57.117 69.96,43.697 57.93,-14.71 53.16,-93.783 53.16,-93.783"
       style="fill:none;stroke:#231f20;stroke-width:14;stroke-linecap:round;stroke-linejoin:round;stroke-miterlimit:10;stroke-dasharray:none;stroke-opacity:1"
       id="path200"
       inkscape:connector-curvature="0" /><path
       d="m 1622.72,952.973 18.9,4.453"
       style="fill:none;stroke:#231f20;stroke-width:12;stroke-linecap:round;stroke-linejoin:round;stroke-miterlimit:10;stroke-dasharray:none;stroke-opacity:1"
       id="path202"
       inkscape:connector-curvature="0" /><path
       d="m 1540.17,615.086 c 233.76,65.789 250.61,333.977 250.61,333.977 42.75,227.417 -127.76,477.437 -224.73,464.777 -26.84,45.79 -127.71,66.82 -226.1,30.94 -98.39,-35.88 -316.87,-195.28 -260.39,-495.717 0,0 24.54,-295.676 261.34,-338.872"
       style="fill:none;stroke:#231f20;stroke-width:14;stroke-linecap:round;stroke-linejoin:round;stroke-miterlimit:10;stroke-dasharray:none;stroke-opacity:1"
       id="path204"
       inkscape:connector-curvature="0" /><path
       d="m 1362.92,947.402 c 0,-30.066 -14.59,-54.468 -32.57,-54.468 -17.99,0 -32.6,24.402 -32.6,54.468 0,30.137 14.61,54.528 32.6,54.528 17.98,0 32.57,-24.391 32.57,-54.528"
       style="fill:#231f20;fill-opacity:1;fill-rule:nonzero;stroke:none"
       id="path206"
       inkscape:connector-curvature="0" /><path
       d="m 1361.66,967.73 c 0,-6.449 -5.18,-11.675 -11.59,-11.675 -6.38,0 -11.55,5.226 -11.55,11.675 0,6.473 5.17,11.715 11.55,11.715 6.41,0 11.59,-5.242 11.59,-11.715"
       style="fill:#ffffff;fill-opacity:1;fill-rule:nonzero;stroke:none"
       id="path208"
       inkscape:connector-curvature="0" /><path
       d="m 1507.88,947.402 c 0,-30.066 14.58,-54.468 32.56,-54.468 18.01,0 32.6,24.402 32.6,54.468 0,30.137 -14.59,54.528 -32.6,54.528 -17.98,0 -32.56,-24.391 -32.56,-54.528"
       style="fill:#231f20;fill-opacity:1;fill-rule:nonzero;stroke:none"
       id="path210"
       inkscape:connector-curvature="0" /><path
       d="m 1571.77,967.73 c 0,-6.449 -5.18,-11.675 -11.58,-11.675 -6.38,0 -11.55,5.226 -11.55,11.675 0,6.473 5.17,11.715 11.55,11.715 6.4,0 11.58,-5.242 11.58,-11.715"
       style="fill:#ffffff;fill-opacity:1;fill-rule:nonzero;stroke:none"
       id="path212"
       inkscape:connector-curvature="0" /><path
       d="m 1151.67,934.906 c 6.94,-84.129 33.5,-176.922 71.95,-229.578 57.59,-78.848 165.3,-123.258 211.77,-123.258 46.46,0 154.19,44.41 211.76,123.258 36.7,50.274 62.19,137.742 70.29,214.188 -75.82,102.904 -157.25,288.934 -150.9,349.774 0,0 -55.55,-188.63 -216.45,-217.42 0,0 107.37,72.87 109.81,163.52 0,0 -74.34,-151.9 -230.73,-170.27 0,0 81.25,93.1 75.14,153.12 0,0 -110.23,-69.82 -152.64,-263.334 z"
       style="fill:none;stroke:#231f20;stroke-width:14;stroke-linecap:round;stroke-linejoin:round;stroke-miterlimit:10;stroke-dasharray:none;stroke-opacity:1"
       id="path214"
       inkscape:connector-curvature="0" /><path
       d="m 1332.07,767.777 c 0,0 36.68,-62.449 103.59,-62.449 66.95,0 103.59,62.449 103.59,62.449"
       style="fill:none;stroke:#231f20;stroke-width:14;stroke-linecap:round;stroke-linejoin:round;stroke-miterlimit:10;stroke-dasharray:none;stroke-opacity:1"
       id="path216"
       inkscape:connector-curvature="0" /></g></svg>